<svg xmlns="http://www.w3.org/2000/svg" viewBox="0 0 320 180" role="img" aria-label="MikroTik RB Rack">
  <defs>
    <linearGradient id="rackBody" x1="0%" y1="0%" x2="0%" y2="100%">
      <stop offset="0%" stop-color="#475569"/>
      <stop offset="100%" stop-color="#1e293b"/>
    </linearGradient>
  </defs>
  <rect x="24" y="62" width="272" height="56" rx="4" fill="url(#rackBody)" stroke="#0f172a" stroke-width="2"/>
  <rect x="34" y="72" width="252" height="36" rx="2" fill="#0f172a"/>
  <g fill="#334155">
    <rect x="44" y="78" width="40" height="4" rx="1"/>
    <rect x="44" y="86" width="40" height="4" rx="1"/>
    <rect x="44" y="94" width="40" height="4" rx="1"/>
    <rect x="92" y="78" width="40" height="4" rx="1"/>
    <rect x="92" y="86" width="40" height="4" rx="1"/>
    <rect x="92" y="94" width="40" height="4" rx="1"/>
  </g>
  <rect x="150" y="108" width="12" height="8" rx="1" fill="#64748b"/>
  <rect x="166" y="108" width="12" height="8" rx="1" fill="#64748b"/>
  <rect x="182" y="108" width="12" height="8" rx="1" fill="#64748b"/>
  <rect x="198" y="108" width="12" height="8" rx="1" fill="#64748b"/>
  <rect x="214" y="108" width="12" height="8" rx="1" fill="#64748b"/>
  <rect x="230" y="108" width="12" height="8" rx="1" fill="#64748b"/>
  <rect x="246" y="108" width="12" height="8" rx="1" fill="#64748b"/>
  <rect x="262" y="108" width="12" height="8" rx="1" fill="#64748b"/>
  <circle cx="278" cy="90" r="5" fill="#22c55e"/>
  <text x="120" y="92" text-anchor="middle" font-family="Arial,sans-serif" font-size="12" font-weight="700" fill="#e2e8f0">MikroTik RB</text>
</svg>
